# xmcd
#
# Track frame offsets:
#	150
#	22497
#	41990
#	60460
#	81077
#	98032
#	113272
#	132547
#	154795
#	176242
#	193865
#
# Disc length: 2996 seconds
#
# Revision: 0
# Processed by: cddbd v1.5.2PL0 Copyright (c) Steve Scherf et al.
# Submitted via: dBpowerAMP V4.0
#
DISCID=980bb20b
DTITLE=Sheila G. White and Blueberry Hill - Our Kind'a Country
DYEAR=1900
DGENRE=Country
TTITLE0=Ghost Riders in the sky. 
TTITLE1=The Wild Side of Life
TTITLE2=Walk on By
TTITLE3=Walking After Midnight
TTITLE4=Delta Dawn
TTITLE5=Your Cheating Heart
TTITLE6=Hello Mary Lou
TTITLE7=Sea of Heartbreak
TTITLE8=Together Again
TTITLE9=Oh Lonesome Me
TTITLE10=Leaving On A Jet Plane
EXTD=Sheila G White and Blueberry Hill - Our Kind'a Country
EXTT0=
EXTT1=
EXTT2=
EXTT3=
EXTT4=
EXTT5=
EXTT6=
EXTT7=
EXTT8=
EXTT9=
EXTT10=
PLAYORDER=
